# Tiled2Unity generated file. Do not modify by hand.
# Wavefront file for 'Level2_mesh_0013.obj'

# Vertices (Count = 24)
v -2240 -2380 0
v -2310 -2380 0
v -2310 -2310 0
v -2240 -2310 0
v -840 -2380 0
v -910 -2380 0
v -910 -2310 0
v -840 -2310 0
v -2170 -2450 0
v -2240 -2450 0
v -2240 -2380 0
v -2170 -2380 0
v -770 -2450 0
v -840 -2450 0
v -840 -2380 0
v -770 -2380 0
v -4900 -2730 0
v -4970 -2730 0
v -4970 -2660 0
v -4900 -2660 0
v -4830 -2800 0
v -4900 -2800 0
v -4900 -2730 0
v -4830 -2730 0

# Texture cooridinates (Count = 4)
vt 0 0
vt 1 0
vt 1 1
vt 0 1

# Normal
vn 0 0 -1

# Mesh description
g Level2_mesh_0013

# Faces
f 1/1/1 2/2/1 3/3/1 4/4/1
f 5/1/1 6/2/1 7/3/1 8/4/1
f 9/1/1 10/2/1 11/3/1 12/4/1
f 13/1/1 14/2/1 15/3/1 16/4/1
f 17/1/1 18/2/1 19/3/1 20/4/1
f 21/1/1 22/2/1 23/3/1 24/4/1

