# Tiled2Unity generated file. Do not modify by hand.
# Wavefront file for 'Level2_mesh_0004.obj'

# Vertices (Count = 40)
v -2030 -2100 0
v -2100 -2100 0
v -2100 -2030 0
v -2030 -2030 0
v -1540 -2100 0
v -1610 -2100 0
v -1610 -2030 0
v -1540 -2030 0
v -1120 -2100 0
v -1190 -2100 0
v -1190 -2030 0
v -1120 -2030 0
v -7000 -2450 0
v -7070 -2450 0
v -7070 -2380 0
v -7000 -2380 0
v -6370 -2450 0
v -6440 -2450 0
v -6440 -2380 0
v -6370 -2380 0
v -5740 -2450 0
v -5810 -2450 0
v -5810 -2380 0
v -5740 -2380 0
v -2590 -2450 0
v -2660 -2450 0
v -2660 -2380 0
v -2590 -2380 0
v -6650 -2730 0
v -6720 -2730 0
v -6720 -2660 0
v -6650 -2660 0
v -6020 -2730 0
v -6090 -2730 0
v -6090 -2660 0
v -6020 -2660 0
v -4270 -2940 0
v -4340 -2940 0
v -4340 -2870 0
v -4270 -2870 0

# Texture cooridinates (Count = 4)
vt 0 0
vt 1 0
vt 1 1
vt 0 1

# Normal
vn 0 0 -1

# Mesh description
g Level2_mesh_0004

# Faces
f 1/1/1 2/2/1 3/3/1 4/4/1
f 5/1/1 6/2/1 7/3/1 8/4/1
f 9/1/1 10/2/1 11/3/1 12/4/1
f 13/1/1 14/2/1 15/3/1 16/4/1
f 17/1/1 18/2/1 19/3/1 20/4/1
f 21/1/1 22/2/1 23/3/1 24/4/1
f 25/1/1 26/2/1 27/3/1 28/4/1
f 29/1/1 30/2/1 31/3/1 32/4/1
f 33/1/1 34/2/1 35/3/1 36/4/1
f 37/1/1 38/2/1 39/3/1 40/4/1

