# Tiled2Unity generated file. Do not modify by hand.
# Wavefront file for 'Level2_mesh_0017.obj'

# Vertices (Count = 52)
v -6020 -1890 0
v -6149 -1890 0
v -6149 -1819 0
v -6020 -1819 0
v -5950 -1890 0
v -6079 -1890 0
v -6079 -1819 0
v -5950 -1819 0
v -5880 -1890 0
v -6009 -1890 0
v -6009 -1819 0
v -5880 -1819 0
v -3500 -1960 0
v -3629 -1960 0
v -3629 -1889 0
v -3500 -1889 0
v -7910 -2030 0
v -8039 -2030 0
v -8039 -1959 0
v -7910 -1959 0
v -7840 -2030 0
v -7969 -2030 0
v -7969 -1959 0
v -7840 -1959 0
v -5460 -2030 0
v -5589 -2030 0
v -5589 -1959 0
v -5460 -1959 0
v -5390 -2030 0
v -5519 -2030 0
v -5519 -1959 0
v -5390 -1959 0
v -5320 -2030 0
v -5449 -2030 0
v -5449 -1959 0
v -5320 -1959 0
v -4480 -2030 0
v -4609 -2030 0
v -4609 -1959 0
v -4480 -1959 0
v -4340 -2170 0
v -4469 -2170 0
v -4469 -2099 0
v -4340 -2099 0
v -4060 -2240 0
v -4189 -2240 0
v -4189 -2169 0
v -4060 -2169 0
v -3990 -2240 0
v -4119 -2240 0
v -4119 -2169 0
v -3990 -2169 0

# Texture cooridinates (Count = 4)
vt 0 0
vt 1 0
vt 1 1
vt 0 1

# Normal
vn 0 0 -1

# Mesh description
g Level2_mesh_0017

# Faces
f 1/1/1 2/2/1 3/3/1 4/4/1
f 5/1/1 6/2/1 7/3/1 8/4/1
f 9/1/1 10/2/1 11/3/1 12/4/1
f 13/1/1 14/2/1 15/3/1 16/4/1
f 17/1/1 18/2/1 19/3/1 20/4/1
f 21/1/1 22/2/1 23/3/1 24/4/1
f 25/1/1 26/2/1 27/3/1 28/4/1
f 29/1/1 30/2/1 31/3/1 32/4/1
f 33/1/1 34/2/1 35/3/1 36/4/1
f 37/1/1 38/2/1 39/3/1 40/4/1
f 41/1/1 42/2/1 43/3/1 44/4/1
f 45/1/1 46/2/1 47/3/1 48/4/1
f 49/1/1 50/2/1 51/3/1 52/4/1

