# Tiled2Unity generated file. Do not modify by hand.
# Wavefront file for 'Level2_mesh_0020.obj'

# Vertices (Count = 48)
v -8050 -2030 0
v -8179 -2030 0
v -8179 -1959 0
v -8050 -1959 0
v -6650 -2030 0
v -6779 -2030 0
v -6779 -1959 0
v -6650 -1959 0
v -6580 -2030 0
v -6709 -2030 0
v -6709 -1959 0
v -6580 -1959 0
v -6510 -2030 0
v -6639 -2030 0
v -6639 -1959 0
v -6510 -1959 0
v -6440 -2030 0
v -6569 -2030 0
v -6569 -1959 0
v -6440 -1959 0
v -5250 -2030 0
v -5379 -2030 0
v -5379 -1959 0
v -5250 -1959 0
v -5180 -2030 0
v -5309 -2030 0
v -5309 -1959 0
v -5180 -1959 0
v -5110 -2030 0
v -5239 -2030 0
v -5239 -1959 0
v -5110 -1959 0
v -4550 -2170 0
v -4679 -2170 0
v -4679 -2099 0
v -4550 -2099 0
v -4480 -2170 0
v -4609 -2170 0
v -4609 -2099 0
v -4480 -2099 0
v -4410 -2170 0
v -4539 -2170 0
v -4539 -2099 0
v -4410 -2099 0
v -4830 -2310 0
v -4959 -2310 0
v -4959 -2239 0
v -4830 -2239 0

# Texture cooridinates (Count = 4)
vt 0 0
vt 1 0
vt 1 1
vt 0 1

# Normal
vn 0 0 -1

# Mesh description
g Level2_mesh_0020

# Faces
f 1/1/1 2/2/1 3/3/1 4/4/1
f 5/1/1 6/2/1 7/3/1 8/4/1
f 9/1/1 10/2/1 11/3/1 12/4/1
f 13/1/1 14/2/1 15/3/1 16/4/1
f 17/1/1 18/2/1 19/3/1 20/4/1
f 21/1/1 22/2/1 23/3/1 24/4/1
f 25/1/1 26/2/1 27/3/1 28/4/1
f 29/1/1 30/2/1 31/3/1 32/4/1
f 33/1/1 34/2/1 35/3/1 36/4/1
f 37/1/1 38/2/1 39/3/1 40/4/1
f 41/1/1 42/2/1 43/3/1 44/4/1
f 45/1/1 46/2/1 47/3/1 48/4/1

