# Tiled2Unity generated file. Do not modify by hand.
# Wavefront file for 'Level2_mesh_0021.obj'

# Vertices (Count = 16)
v -2170 -2100 0
v -2240 -2100 0
v -2240 -2030 0
v -2170 -2030 0
v -1820 -2100 0
v -1890 -2100 0
v -1890 -2030 0
v -1820 -2030 0
v -1260 -2100 0
v -1330 -2100 0
v -1330 -2030 0
v -1260 -2030 0
v -2870 -2450 0
v -2940 -2450 0
v -2940 -2380 0
v -2870 -2380 0

# Texture cooridinates (Count = 4)
vt 0 0
vt 1 0
vt 1 1
vt 0 1

# Normal
vn 0 0 -1

# Mesh description
g Level2_mesh_0021

# Faces
f 1/1/1 2/2/1 3/3/1 4/4/1
f 5/1/1 6/2/1 7/3/1 8/4/1
f 9/1/1 10/2/1 11/3/1 12/4/1
f 13/1/1 14/2/1 15/3/1 16/4/1

