# Tiled2Unity generated file. Do not modify by hand.
# Wavefront file for 'Level2_mesh_0016.obj'

# Vertices (Count = 132)
v -1610 -1540 0
v -1738 -1540 0
v -1738 -1469 0
v -1610 -1469 0
v -1540 -1540 0
v -1668 -1540 0
v -1668 -1469 0
v -1540 -1469 0
v -1470 -1540 0
v -1598 -1540 0
v -1598 -1469 0
v -1470 -1469 0
v -1400 -1540 0
v -1528 -1540 0
v -1528 -1469 0
v -1400 -1469 0
v -1330 -1540 0
v -1458 -1540 0
v -1458 -1469 0
v -1330 -1469 0
v -1260 -1540 0
v -1388 -1540 0
v -1388 -1469 0
v -1260 -1469 0
v -1190 -1540 0
v -1318 -1540 0
v -1318 -1469 0
v -1190 -1469 0
v -2730 -1680 0
v -2858 -1680 0
v -2858 -1609 0
v -2730 -1609 0
v -2310 -1680 0
v -2438 -1680 0
v -2438 -1609 0
v -2310 -1609 0
v -1890 -1750 0
v -2018 -1750 0
v -2018 -1679 0
v -1890 -1679 0
v -1820 -1750 0
v -1948 -1750 0
v -1948 -1679 0
v -1820 -1679 0
v -490 -1750 0
v -618 -1750 0
v -618 -1679 0
v -490 -1679 0
v -420 -1750 0
v -548 -1750 0
v -548 -1679 0
v -420 -1679 0
v -350 -1750 0
v -478 -1750 0
v -478 -1679 0
v -350 -1679 0
v -280 -1750 0
v -408 -1750 0
v -408 -1679 0
v -280 -1679 0
v -210 -1750 0
v -338 -1750 0
v -338 -1679 0
v -210 -1679 0
v -140 -1750 0
v -268 -1750 0
v -268 -1679 0
v -140 -1679 0
v -1050 -1820 0
v -1178 -1820 0
v -1178 -1749 0
v -1050 -1749 0
v -980 -1820 0
v -1108 -1820 0
v -1108 -1749 0
v -980 -1749 0
v -910 -1820 0
v -1038 -1820 0
v -1038 -1749 0
v -910 -1749 0
v -840 -1820 0
v -968 -1820 0
v -968 -1749 0
v -840 -1749 0
v -3290 -1890 0
v -3418 -1890 0
v -3418 -1819 0
v -3290 -1819 0
v -2520 -1890 0
v -2648 -1890 0
v -2648 -1819 0
v -2520 -1819 0
v -7210 -1960 0
v -7338 -1960 0
v -7338 -1889 0
v -7210 -1889 0
v -7140 -1960 0
v -7268 -1960 0
v -7268 -1889 0
v -7140 -1889 0
v -7070 -1960 0
v -7198 -1960 0
v -7198 -1889 0
v -7070 -1889 0
v -7000 -1960 0
v -7128 -1960 0
v -7128 -1889 0
v -7000 -1889 0
v -3850 -1960 0
v -3978 -1960 0
v -3978 -1889 0
v -3850 -1889 0
v -8120 -2030 0
v -8248 -2030 0
v -8248 -1959 0
v -8120 -1959 0
v -7980 -2030 0
v -8108 -2030 0
v -8108 -1959 0
v -7980 -1959 0
v -7770 -2030 0
v -7898 -2030 0
v -7898 -1959 0
v -7770 -1959 0
v -3640 -2100 0
v -3768 -2100 0
v -3768 -2029 0
v -3640 -2029 0
v -3920 -2240 0
v -4048 -2240 0
v -4048 -2169 0
v -3920 -2169 0

# Texture cooridinates (Count = 4)
vt 0 0
vt 1 0
vt 1 1
vt 0 1

# Normal
vn 0 0 -1

# Mesh description
g Level2_mesh_0016

# Faces
f 1/1/1 2/2/1 3/3/1 4/4/1
f 5/1/1 6/2/1 7/3/1 8/4/1
f 9/1/1 10/2/1 11/3/1 12/4/1
f 13/1/1 14/2/1 15/3/1 16/4/1
f 17/1/1 18/2/1 19/3/1 20/4/1
f 21/1/1 22/2/1 23/3/1 24/4/1
f 25/1/1 26/2/1 27/3/1 28/4/1
f 29/1/1 30/2/1 31/3/1 32/4/1
f 33/1/1 34/2/1 35/3/1 36/4/1
f 37/1/1 38/2/1 39/3/1 40/4/1
f 41/1/1 42/2/1 43/3/1 44/4/1
f 45/1/1 46/2/1 47/3/1 48/4/1
f 49/1/1 50/2/1 51/3/1 52/4/1
f 53/1/1 54/2/1 55/3/1 56/4/1
f 57/1/1 58/2/1 59/3/1 60/4/1
f 61/1/1 62/2/1 63/3/1 64/4/1
f 65/1/1 66/2/1 67/3/1 68/4/1
f 69/1/1 70/2/1 71/3/1 72/4/1
f 73/1/1 74/2/1 75/3/1 76/4/1
f 77/1/1 78/2/1 79/3/1 80/4/1
f 81/1/1 82/2/1 83/3/1 84/4/1
f 85/1/1 86/2/1 87/3/1 88/4/1
f 89/1/1 90/2/1 91/3/1 92/4/1
f 93/1/1 94/2/1 95/3/1 96/4/1
f 97/1/1 98/2/1 99/3/1 100/4/1
f 101/1/1 102/2/1 103/3/1 104/4/1
f 105/1/1 106/2/1 107/3/1 108/4/1
f 109/1/1 110/2/1 111/3/1 112/4/1
f 113/1/1 114/2/1 115/3/1 116/4/1
f 117/1/1 118/2/1 119/3/1 120/4/1
f 121/1/1 122/2/1 123/3/1 124/4/1
f 125/1/1 126/2/1 127/3/1 128/4/1
f 129/1/1 130/2/1 131/3/1 132/4/1

