# Tiled2Unity generated file. Do not modify by hand.
# Wavefront file for 'isopods_mesh_0021.obj'

# Vertices (Count = 32)
v -700 -2940 0
v -770 -2940 0
v -770 -2870 0
v -700 -2870 0
v -210 -3080 0
v -280 -3080 0
v -280 -3010 0
v -210 -3010 0
v -5880 -3150 0
v -5950 -3150 0
v -5950 -3080 0
v -5880 -3080 0
v -1890 -3150 0
v -1960 -3150 0
v -1960 -3080 0
v -1890 -3080 0
v -1750 -3150 0
v -1820 -3150 0
v -1820 -3080 0
v -1750 -3080 0
v -6300 -3500 0
v -6370 -3500 0
v -6370 -3430 0
v -6300 -3430 0
v -6230 -3500 0
v -6300 -3500 0
v -6300 -3430 0
v -6230 -3430 0
v -6160 -3500 0
v -6230 -3500 0
v -6230 -3430 0
v -6160 -3430 0

# Texture cooridinates (Count = 4)
vt 0 0
vt 1 0
vt 1 1
vt 0 1

# Normal
vn 0 0 -1

# Mesh description
g isopods_mesh_0021

# Faces
f 1/1/1 2/2/1 3/3/1 4/4/1
f 5/1/1 6/2/1 7/3/1 8/4/1
f 9/1/1 10/2/1 11/3/1 12/4/1
f 13/1/1 14/2/1 15/3/1 16/4/1
f 17/1/1 18/2/1 19/3/1 20/4/1
f 21/1/1 22/2/1 23/3/1 24/4/1
f 25/1/1 26/2/1 27/3/1 28/4/1
f 29/1/1 30/2/1 31/3/1 32/4/1

