# Tiled2Unity generated file. Do not modify by hand.
# Wavefront file for 'isopods_mesh_0017.obj'

# Vertices (Count = 68)
v -2100 -2800 0
v -2170 -2800 0
v -2170 -2730 0
v -2100 -2730 0
v -2030 -2800 0
v -2100 -2800 0
v -2100 -2730 0
v -2030 -2730 0
v -560 -2940 0
v -630 -2940 0
v -630 -2870 0
v -560 -2870 0
v -490 -2940 0
v -560 -2940 0
v -560 -2870 0
v -490 -2870 0
v -7140 -3150 0
v -7210 -3150 0
v -7210 -3080 0
v -7140 -3080 0
v -7070 -3150 0
v -7140 -3150 0
v -7140 -3080 0
v -7070 -3080 0
v -7000 -3150 0
v -7070 -3150 0
v -7070 -3080 0
v -7000 -3080 0
v -6930 -3150 0
v -7000 -3150 0
v -7000 -3080 0
v -6930 -3080 0
v -6860 -3150 0
v -6930 -3150 0
v -6930 -3080 0
v -6860 -3080 0
v -6790 -3150 0
v -6860 -3150 0
v -6860 -3080 0
v -6790 -3080 0
v -6160 -3150 0
v -6230 -3150 0
v -6230 -3080 0
v -6160 -3080 0
v -4620 -3150 0
v -4690 -3150 0
v -4690 -3080 0
v -4620 -3080 0
v -3570 -3150 0
v -3640 -3150 0
v -3640 -3080 0
v -3570 -3080 0
v -3500 -3150 0
v -3570 -3150 0
v -3570 -3080 0
v -3500 -3080 0
v -3430 -3150 0
v -3500 -3150 0
v -3500 -3080 0
v -3430 -3080 0
v -3360 -3150 0
v -3430 -3150 0
v -3430 -3080 0
v -3360 -3080 0
v -3290 -3150 0
v -3360 -3150 0
v -3360 -3080 0
v -3290 -3080 0

# Texture cooridinates (Count = 4)
vt 0 0
vt 1 0
vt 1 1
vt 0 1

# Normal
vn 0 0 -1

# Mesh description
g isopods_mesh_0017

# Faces
f 1/1/1 2/2/1 3/3/1 4/4/1
f 5/1/1 6/2/1 7/3/1 8/4/1
f 9/1/1 10/2/1 11/3/1 12/4/1
f 13/1/1 14/2/1 15/3/1 16/4/1
f 17/1/1 18/2/1 19/3/1 20/4/1
f 21/1/1 22/2/1 23/3/1 24/4/1
f 25/1/1 26/2/1 27/3/1 28/4/1
f 29/1/1 30/2/1 31/3/1 32/4/1
f 33/1/1 34/2/1 35/3/1 36/4/1
f 37/1/1 38/2/1 39/3/1 40/4/1
f 41/1/1 42/2/1 43/3/1 44/4/1
f 45/1/1 46/2/1 47/3/1 48/4/1
f 49/1/1 50/2/1 51/3/1 52/4/1
f 53/1/1 54/2/1 55/3/1 56/4/1
f 57/1/1 58/2/1 59/3/1 60/4/1
f 61/1/1 62/2/1 63/3/1 64/4/1
f 65/1/1 66/2/1 67/3/1 68/4/1

