# Tiled2Unity generated file. Do not modify by hand.
# Wavefront file for 'isopods_mesh_0005.obj'

# Vertices (Count = 28)
v -2310 -2870 0
v -2380 -2870 0
v -2380 -2800 0
v -2310 -2800 0
v -2380 -2940 0
v -2450 -2940 0
v -2450 -2870 0
v -2380 -2870 0
v -1190 -2940 0
v -1260 -2940 0
v -1260 -2870 0
v -1190 -2870 0
v -2450 -3010 0
v -2520 -3010 0
v -2520 -2940 0
v -2450 -2940 0
v -1260 -3010 0
v -1330 -3010 0
v -1330 -2940 0
v -1260 -2940 0
v -1330 -3080 0
v -1400 -3080 0
v -1400 -3010 0
v -1330 -3010 0
v -1400 -3150 0
v -1470 -3150 0
v -1470 -3080 0
v -1400 -3080 0

# Texture cooridinates (Count = 4)
vt 0 0
vt 1 0
vt 1 1
vt 0 1

# Normal
vn 0 0 -1

# Mesh description
g isopods_mesh_0005

# Faces
f 1/1/1 2/2/1 3/3/1 4/4/1
f 5/1/1 6/2/1 7/3/1 8/4/1
f 9/1/1 10/2/1 11/3/1 12/4/1
f 13/1/1 14/2/1 15/3/1 16/4/1
f 17/1/1 18/2/1 19/3/1 20/4/1
f 21/1/1 22/2/1 23/3/1 24/4/1
f 25/1/1 26/2/1 27/3/1 28/4/1

