# Tiled2Unity generated file. Do not modify by hand.
# Wavefront file for 'isopods_mesh_0001.obj'

# Vertices (Count = 60)
v -3080 -2450 0
v -3150 -2450 0
v -3150 -2380 0
v -3080 -2380 0
v -2800 -2660 0
v -2870 -2660 0
v -2870 -2590 0
v -2800 -2590 0
v -3150 -2800 0
v -3220 -2800 0
v -3220 -2730 0
v -3150 -2730 0
v -2870 -2870 0
v -2940 -2870 0
v -2940 -2800 0
v -2870 -2800 0
v -1680 -2870 0
v -1750 -2870 0
v -1750 -2800 0
v -1680 -2800 0
v -1330 -2870 0
v -1400 -2870 0
v -1400 -2800 0
v -1330 -2800 0
v -2870 -3080 0
v -2940 -3080 0
v -2940 -3010 0
v -2870 -3010 0
v -2800 -3080 0
v -2870 -3080 0
v -2870 -3010 0
v -2800 -3010 0
v -5880 -3220 0
v -5950 -3220 0
v -5950 -3150 0
v -5880 -3150 0
v -5530 -3220 0
v -5600 -3220 0
v -5600 -3150 0
v -5530 -3150 0
v -5180 -3220 0
v -5250 -3220 0
v -5250 -3150 0
v -5180 -3150 0
v -5110 -3220 0
v -5180 -3220 0
v -5180 -3150 0
v -5110 -3150 0
v -5040 -3220 0
v -5110 -3220 0
v -5110 -3150 0
v -5040 -3150 0
v -4620 -3220 0
v -4690 -3220 0
v -4690 -3150 0
v -4620 -3150 0
v -4550 -3220 0
v -4620 -3220 0
v -4620 -3150 0
v -4550 -3150 0

# Texture cooridinates (Count = 4)
vt 0 0
vt 1 0
vt 1 1
vt 0 1

# Normal
vn 0 0 -1

# Mesh description
g isopods_mesh_0001

# Faces
f 1/1/1 2/2/1 3/3/1 4/4/1
f 5/1/1 6/2/1 7/3/1 8/4/1
f 9/1/1 10/2/1 11/3/1 12/4/1
f 13/1/1 14/2/1 15/3/1 16/4/1
f 17/1/1 18/2/1 19/3/1 20/4/1
f 21/1/1 22/2/1 23/3/1 24/4/1
f 25/1/1 26/2/1 27/3/1 28/4/1
f 29/1/1 30/2/1 31/3/1 32/4/1
f 33/1/1 34/2/1 35/3/1 36/4/1
f 37/1/1 38/2/1 39/3/1 40/4/1
f 41/1/1 42/2/1 43/3/1 44/4/1
f 45/1/1 46/2/1 47/3/1 48/4/1
f 49/1/1 50/2/1 51/3/1 52/4/1
f 53/1/1 54/2/1 55/3/1 56/4/1
f 57/1/1 58/2/1 59/3/1 60/4/1

