# Tiled2Unity generated file. Do not modify by hand.
# Wavefront file for 'isopods_mesh_0020.obj'

# Vertices (Count = 20)
v -2240 -2870 0
v -2310 -2870 0
v -2310 -2800 0
v -2240 -2800 0
v -2170 -2870 0
v -2240 -2870 0
v -2240 -2800 0
v -2170 -2800 0
v -2100 -2870 0
v -2170 -2870 0
v -2170 -2800 0
v -2100 -2800 0
v -2030 -2870 0
v -2100 -2870 0
v -2100 -2800 0
v -2030 -2800 0
v -1960 -2870 0
v -2030 -2870 0
v -2030 -2800 0
v -1960 -2800 0

# Texture cooridinates (Count = 4)
vt 0 0
vt 1 0
vt 1 1
vt 0 1

# Normal
vn 0 0 -1

# Mesh description
g isopods_mesh_0020

# Faces
f 1/1/1 2/2/1 3/3/1 4/4/1
f 5/1/1 6/2/1 7/3/1 8/4/1
f 9/1/1 10/2/1 11/3/1 12/4/1
f 13/1/1 14/2/1 15/3/1 16/4/1
f 17/1/1 18/2/1 19/3/1 20/4/1

