# Tiled2Unity generated file. Do not modify by hand.
# Wavefront file for 'isopods_mesh_0015.obj'

# Vertices (Count = 156)
v -2380 -2520 0
v -2509 -2520 0
v -2509 -2449 0
v -2380 -2449 0
v -5880 -2590 0
v -6009 -2590 0
v -6009 -2519 0
v -5880 -2519 0
v -4480 -2590 0
v -4609 -2590 0
v -4609 -2519 0
v -4480 -2519 0
v -3010 -2590 0
v -3139 -2590 0
v -3139 -2519 0
v -3010 -2519 0
v -1960 -2660 0
v -2089 -2660 0
v -2089 -2589 0
v -1960 -2589 0
v -1890 -2660 0
v -2019 -2660 0
v -2019 -2589 0
v -1890 -2589 0
v -700 -2660 0
v -829 -2660 0
v -829 -2589 0
v -700 -2589 0
v -630 -2660 0
v -759 -2660 0
v -759 -2589 0
v -630 -2589 0
v -6720 -2730 0
v -6849 -2730 0
v -6849 -2659 0
v -6720 -2659 0
v -6650 -2730 0
v -6779 -2730 0
v -6779 -2659 0
v -6650 -2659 0
v -6580 -2730 0
v -6709 -2730 0
v -6709 -2659 0
v -6580 -2659 0
v -5110 -2730 0
v -5239 -2730 0
v -5239 -2659 0
v -5110 -2659 0
v -3780 -2730 0
v -3909 -2730 0
v -3909 -2659 0
v -3780 -2659 0
v -280 -2730 0
v -409 -2730 0
v -409 -2659 0
v -280 -2659 0
v -210 -2730 0
v -339 -2730 0
v -339 -2659 0
v -210 -2659 0
v -8120 -2800 0
v -8249 -2800 0
v -8249 -2729 0
v -8120 -2729 0
v -8050 -2800 0
v -8179 -2800 0
v -8179 -2729 0
v -8050 -2729 0
v -7980 -2800 0
v -8109 -2800 0
v -8109 -2729 0
v -7980 -2729 0
v -7140 -2800 0
v -7269 -2800 0
v -7269 -2729 0
v -7140 -2729 0
v -3640 -2870 0
v -3769 -2870 0
v -3769 -2799 0
v -3640 -2799 0
v -3570 -2870 0
v -3699 -2870 0
v -3699 -2799 0
v -3570 -2799 0
v -7700 -2940 0
v -7829 -2940 0
v -7829 -2869 0
v -7700 -2869 0
v -7630 -2940 0
v -7759 -2940 0
v -7759 -2869 0
v -7630 -2869 0
v -7560 -2940 0
v -7689 -2940 0
v -7689 -2869 0
v -7560 -2869 0
v -7490 -2940 0
v -7619 -2940 0
v -7619 -2869 0
v -7490 -2869 0
v -7420 -2940 0
v -7549 -2940 0
v -7549 -2869 0
v -7420 -2869 0
v -5880 -2940 0
v -6009 -2940 0
v -6009 -2869 0
v -5880 -2869 0
v -5810 -2940 0
v -5939 -2940 0
v -5939 -2869 0
v -5810 -2869 0
v -5740 -2940 0
v -5869 -2940 0
v -5869 -2869 0
v -5740 -2869 0
v -5320 -2940 0
v -5449 -2940 0
v -5449 -2869 0
v -5320 -2869 0
v -4900 -2940 0
v -5029 -2940 0
v -5029 -2869 0
v -4900 -2869 0
v -4830 -2940 0
v -4959 -2940 0
v -4959 -2869 0
v -4830 -2869 0
v -4760 -2940 0
v -4889 -2940 0
v -4889 -2869 0
v -4760 -2869 0
v -4690 -2940 0
v -4819 -2940 0
v -4819 -2869 0
v -4690 -2869 0
v -4340 -2940 0
v -4469 -2940 0
v -4469 -2869 0
v -4340 -2869 0
v -4270 -2940 0
v -4399 -2940 0
v -4399 -2869 0
v -4270 -2869 0
v -6510 -3010 0
v -6639 -3010 0
v -6639 -2939 0
v -6510 -2939 0
v -6440 -3010 0
v -6569 -3010 0
v -6569 -2939 0
v -6440 -2939 0
v -6370 -3010 0
v -6499 -3010 0
v -6499 -2939 0
v -6370 -2939 0

# Texture cooridinates (Count = 4)
vt 0 0
vt 1 0
vt 1 1
vt 0 1

# Normal
vn 0 0 -1

# Mesh description
g isopods_mesh_0015

# Faces
f 1/1/1 2/2/1 3/3/1 4/4/1
f 5/1/1 6/2/1 7/3/1 8/4/1
f 9/1/1 10/2/1 11/3/1 12/4/1
f 13/1/1 14/2/1 15/3/1 16/4/1
f 17/1/1 18/2/1 19/3/1 20/4/1
f 21/1/1 22/2/1 23/3/1 24/4/1
f 25/1/1 26/2/1 27/3/1 28/4/1
f 29/1/1 30/2/1 31/3/1 32/4/1
f 33/1/1 34/2/1 35/3/1 36/4/1
f 37/1/1 38/2/1 39/3/1 40/4/1
f 41/1/1 42/2/1 43/3/1 44/4/1
f 45/1/1 46/2/1 47/3/1 48/4/1
f 49/1/1 50/2/1 51/3/1 52/4/1
f 53/1/1 54/2/1 55/3/1 56/4/1
f 57/1/1 58/2/1 59/3/1 60/4/1
f 61/1/1 62/2/1 63/3/1 64/4/1
f 65/1/1 66/2/1 67/3/1 68/4/1
f 69/1/1 70/2/1 71/3/1 72/4/1
f 73/1/1 74/2/1 75/3/1 76/4/1
f 77/1/1 78/2/1 79/3/1 80/4/1
f 81/1/1 82/2/1 83/3/1 84/4/1
f 85/1/1 86/2/1 87/3/1 88/4/1
f 89/1/1 90/2/1 91/3/1 92/4/1
f 93/1/1 94/2/1 95/3/1 96/4/1
f 97/1/1 98/2/1 99/3/1 100/4/1
f 101/1/1 102/2/1 103/3/1 104/4/1
f 105/1/1 106/2/1 107/3/1 108/4/1
f 109/1/1 110/2/1 111/3/1 112/4/1
f 113/1/1 114/2/1 115/3/1 116/4/1
f 117/1/1 118/2/1 119/3/1 120/4/1
f 121/1/1 122/2/1 123/3/1 124/4/1
f 125/1/1 126/2/1 127/3/1 128/4/1
f 129/1/1 130/2/1 131/3/1 132/4/1
f 133/1/1 134/2/1 135/3/1 136/4/1
f 137/1/1 138/2/1 139/3/1 140/4/1
f 141/1/1 142/2/1 143/3/1 144/4/1
f 145/1/1 146/2/1 147/3/1 148/4/1
f 149/1/1 150/2/1 151/3/1 152/4/1
f 153/1/1 154/2/1 155/3/1 156/4/1

