# Tiled2Unity generated file. Do not modify by hand.
# Wavefront file for 'isopods_mesh_0019.obj'

# Vertices (Count = 32)
v -980 -2870 0
v -1050 -2870 0
v -1050 -2800 0
v -980 -2800 0
v -910 -2870 0
v -980 -2870 0
v -980 -2800 0
v -910 -2800 0
v -840 -2870 0
v -910 -2870 0
v -910 -2800 0
v -840 -2800 0
v -5530 -3150 0
v -5600 -3150 0
v -5600 -3080 0
v -5530 -3080 0
v -6020 -3500 0
v -6090 -3500 0
v -6090 -3430 0
v -6020 -3430 0
v -5950 -3500 0
v -6020 -3500 0
v -6020 -3430 0
v -5950 -3430 0
v -4970 -3500 0
v -5040 -3500 0
v -5040 -3430 0
v -4970 -3430 0
v -4900 -3500 0
v -4970 -3500 0
v -4970 -3430 0
v -4900 -3430 0

# Texture cooridinates (Count = 4)
vt 0 0
vt 1 0
vt 1 1
vt 0 1

# Normal
vn 0 0 -1

# Mesh description
g isopods_mesh_0019

# Faces
f 1/1/1 2/2/1 3/3/1 4/4/1
f 5/1/1 6/2/1 7/3/1 8/4/1
f 9/1/1 10/2/1 11/3/1 12/4/1
f 13/1/1 14/2/1 15/3/1 16/4/1
f 17/1/1 18/2/1 19/3/1 20/4/1
f 21/1/1 22/2/1 23/3/1 24/4/1
f 25/1/1 26/2/1 27/3/1 28/4/1
f 29/1/1 30/2/1 31/3/1 32/4/1

