# Tiled2Unity generated file. Do not modify by hand.
# Wavefront file for 'isopods_mesh_0018.obj'

# Vertices (Count = 48)
v -2240 -2800 0
v -2310 -2800 0
v -2310 -2730 0
v -2240 -2730 0
v -2870 -3010 0
v -2940 -3010 0
v -2940 -2940 0
v -2870 -2940 0
v -2800 -3010 0
v -2870 -3010 0
v -2870 -2940 0
v -2800 -2940 0
v -2520 -3010 0
v -2590 -3010 0
v -2590 -2940 0
v -2520 -2940 0
v -5740 -3500 0
v -5810 -3500 0
v -5810 -3430 0
v -5740 -3430 0
v -5670 -3500 0
v -5740 -3500 0
v -5740 -3430 0
v -5670 -3430 0
v -5600 -3500 0
v -5670 -3500 0
v -5670 -3430 0
v -5600 -3430 0
v -5530 -3500 0
v -5600 -3500 0
v -5600 -3430 0
v -5530 -3430 0
v -5460 -3500 0
v -5530 -3500 0
v -5530 -3430 0
v -5460 -3430 0
v -5390 -3500 0
v -5460 -3500 0
v -5460 -3430 0
v -5390 -3430 0
v -5320 -3500 0
v -5390 -3500 0
v -5390 -3430 0
v -5320 -3430 0
v -5250 -3500 0
v -5320 -3500 0
v -5320 -3430 0
v -5250 -3430 0

# Texture cooridinates (Count = 4)
vt 0 0
vt 1 0
vt 1 1
vt 0 1

# Normal
vn 0 0 -1

# Mesh description
g isopods_mesh_0018

# Faces
f 1/1/1 2/2/1 3/3/1 4/4/1
f 5/1/1 6/2/1 7/3/1 8/4/1
f 9/1/1 10/2/1 11/3/1 12/4/1
f 13/1/1 14/2/1 15/3/1 16/4/1
f 17/1/1 18/2/1 19/3/1 20/4/1
f 21/1/1 22/2/1 23/3/1 24/4/1
f 25/1/1 26/2/1 27/3/1 28/4/1
f 29/1/1 30/2/1 31/3/1 32/4/1
f 33/1/1 34/2/1 35/3/1 36/4/1
f 37/1/1 38/2/1 39/3/1 40/4/1
f 41/1/1 42/2/1 43/3/1 44/4/1
f 45/1/1 46/2/1 47/3/1 48/4/1

