# Tiled2Unity generated file. Do not modify by hand.
# Wavefront file for 'isopods_mesh_0013.obj'

# Vertices (Count = 16)
v -3080 -2450 0
v -3150 -2450 0
v -3150 -2380 0
v -3080 -2380 0
v -2800 -2660 0
v -2870 -2660 0
v -2870 -2590 0
v -2800 -2590 0
v -3150 -2800 0
v -3220 -2800 0
v -3220 -2730 0
v -3150 -2730 0
v -2870 -2870 0
v -2940 -2870 0
v -2940 -2800 0
v -2870 -2800 0

# Texture cooridinates (Count = 4)
vt 0 0
vt 1 0
vt 1 1
vt 0 1

# Normal
vn 0 0 -1

# Mesh description
g isopods_mesh_0013

# Faces
f 1/1/1 2/2/1 3/3/1 4/4/1
f 5/1/1 6/2/1 7/3/1 8/4/1
f 9/1/1 10/2/1 11/3/1 12/4/1
f 13/1/1 14/2/1 15/3/1 16/4/1

